<svg width="427" height="542" viewBox="0 0 427 542" fill="none" xmlns="http://www.w3.org/2000/svg">
<path fill-rule="evenodd" clip-rule="evenodd" d="M174.715 16.7406C228.073 22.0976 264.927 69.4046 303.033 107.161C335.447 139.278 358.599 176.443 377.72 217.886C399.581 265.265 441.985 316.122 421.611 364.16C401.03 412.686 329.277 407.183 285.194 436.046C244.502 462.69 223.168 529.956 174.715 525.817C125.293 521.596 106.08 458.583 77.1375 418.276C57.489 390.913 46.2897 360.999 33.8734 329.679C20.3881 295.663 2.6592 264.162 1.54044 227.585C-0.0291823 176.266 -6.36107 119.035 26.2175 79.3699C61.1794 36.8027 119.926 11.24 174.715 16.7406Z" fill="#79DAE8" fill-opacity="0.3"/>
<g clip-path="url(#clip0_147_3)">
<path d="M231.135 83.819L196.709 50.301L200.245 33.4372C201.691 18.2235 218.955 8.01007 216.832 3.39673L241.1 13.1595L231.135 83.819Z" fill="#2F2E41"/>
<path d="M122.156 526.298C121.735 526.318 121.318 526.207 120.961 525.982C120.605 525.756 120.327 525.427 120.164 525.038C120.002 524.649 119.963 524.219 120.052 523.808C120.142 523.396 120.356 523.021 120.666 522.735L120.807 522.175C120.788 522.13 120.769 522.085 120.751 522.041C120.326 521.039 119.615 520.185 118.707 519.585C117.799 518.986 116.734 518.668 115.646 518.672C114.558 518.676 113.495 519.002 112.591 519.608C111.688 520.214 110.983 521.074 110.566 522.079C108.901 526.09 106.78 530.108 106.258 534.35C106.028 536.224 106.125 538.125 106.545 539.967C102.632 531.433 100.601 522.158 100.588 512.771C100.587 510.416 100.718 508.062 100.98 505.721C101.196 503.801 101.497 501.896 101.881 500.004C103.978 489.739 108.48 480.118 115.017 471.931C118.182 470.205 120.74 467.55 122.349 464.325C122.932 463.165 123.344 461.928 123.572 460.65C123.215 460.697 122.226 455.261 122.496 454.928C121.998 454.173 121.108 453.798 120.565 453.061C117.863 449.399 114.14 450.038 112.197 455.016C108.046 457.111 108.006 460.585 110.553 463.927C112.173 466.053 112.396 468.929 113.818 471.205C113.672 471.393 113.519 471.574 113.373 471.761C110.699 475.2 108.368 478.892 106.415 482.785C106.89 478.423 106.323 474.012 104.76 469.912C103.176 466.092 100.208 462.874 97.5935 459.572C96.9021 458.684 95.9632 458.022 94.8954 457.668C93.8276 457.315 92.6789 457.285 91.5945 457.584C90.5101 457.883 89.5387 458.497 88.803 459.348C88.0674 460.199 87.6005 461.249 87.4614 462.365C87.4561 462.413 87.4508 462.462 87.4457 462.511C87.834 462.73 88.2141 462.962 88.586 463.208C89.0532 463.52 89.4152 463.966 89.6246 464.488C89.834 465.009 89.881 465.582 89.7594 466.13C89.6379 466.679 89.3535 467.178 88.9435 467.562C88.5335 467.946 88.017 468.197 87.4617 468.283L87.4048 468.292C87.5431 469.691 87.7876 471.078 88.1362 472.44C84.7826 485.409 92.0228 490.132 102.361 490.344C102.589 490.461 102.811 490.578 103.04 490.689C101.077 496.252 99.8454 502.046 99.3767 507.926C99.1114 511.396 99.1271 514.88 99.4235 518.347L99.406 518.224C98.6569 514.369 96.6005 510.891 93.5838 508.377C89.1034 504.697 82.7733 503.341 77.9397 500.383C77.426 500.053 76.8287 499.877 76.2182 499.876C75.6078 499.874 75.0096 500.047 74.4943 500.375C73.979 500.702 73.5681 501.17 73.3099 501.723C73.0518 502.276 72.9572 502.892 73.0374 503.497L73.0572 503.626C73.7778 503.919 74.4793 504.257 75.1578 504.638C75.5461 504.857 75.9262 505.09 76.2981 505.336C76.7653 505.648 77.1273 506.094 77.3367 506.615C77.5461 507.136 77.5931 507.709 77.4715 508.257C77.35 508.806 77.0656 509.305 76.6556 509.689C76.2456 510.073 75.7291 510.325 75.1738 510.41L75.1168 510.419C75.0759 510.425 75.0407 510.431 74.9999 510.437C76.231 513.376 77.959 516.082 80.1081 518.435C82.205 529.756 91.2113 530.83 100.845 527.533H100.851C101.908 532.126 103.44 536.597 105.421 540.874H121.747C121.805 540.692 121.858 540.505 121.91 540.324C120.399 540.419 118.882 540.328 117.393 540.054C118.604 538.568 119.816 537.07 121.027 535.584C121.054 535.556 121.079 535.527 121.103 535.496C121.717 534.736 122.338 533.981 122.952 533.22L122.952 533.22C122.985 530.888 122.717 528.562 122.156 526.299L122.156 526.298Z" fill="#F2F2F2"/>
<path d="M253.885 472.917L251.296 491.153V491.199L250.44 497.266L249.053 507.008V507.019L248.476 511.121L247.609 517.223L239.866 517.061L237.555 517.003L236.341 516.98L236.457 511.595L236.746 497.312L237.266 472.571H237.37L239.681 472.617L248.915 472.814L251.227 472.86L253.885 472.917Z" fill="#A0616A"/>
<path d="M271.901 535.943C271.871 537.279 271.312 538.548 270.349 539.472C269.385 540.397 268.094 540.902 266.758 540.878L263.06 540.797L260.749 540.751L251.515 540.566L249.192 540.52L244.362 540.415L240.675 532.349L239.947 535.805V535.816L239 540.3L237.647 540.277L230.552 540.127L233.51 511.711L236.457 511.595L237.532 511.549L239.843 511.456L248.464 511.121H248.476L249.077 511.098L251.388 511.006L252.347 510.971L252.174 519.037L260.68 525.173L263.003 526.849L269.809 531.76C270.47 532.236 271.006 532.866 271.37 533.594C271.734 534.323 271.917 535.129 271.901 535.943Z" fill="#2F2E41"/>
<path d="M139.676 447.062L129.86 462.646L129.841 462.689L126.581 467.876L121.334 476.2L121.329 476.211L119.124 479.719L115.839 484.933L108.839 481.621L106.754 480.624L105.656 480.107L107.962 475.239L114.064 462.322L124.651 439.954L124.746 439.996L126.837 440.983L135.183 444.936L137.274 445.923L139.676 447.062Z" fill="#A0616A"/>
<path d="M130.359 511.947C129.785 513.153 128.757 514.082 127.499 514.533C126.242 514.983 124.857 514.916 123.648 514.348L120.306 512.763L118.215 511.776L109.864 507.834L107.763 506.842L103.396 504.773L103.329 495.905L101.252 498.761L101.247 498.771L98.5496 502.476L97.325 501.903L90.9104 498.865L105.225 474.14L107.962 475.239L108.962 475.636L111.109 476.496L119.114 479.714L119.125 479.719L119.683 479.943L121.83 480.803L122.72 481.164L119.265 488.454L124.519 497.531L125.954 500.009L130.159 507.274C130.568 507.978 130.799 508.772 130.834 509.586C130.869 510.399 130.706 511.21 130.359 511.947Z" fill="#2F2E41"/>
<path d="M301.405 231.25L278.808 194.396L290.827 182.855L311.421 225.374C313.25 225.682 314.94 226.546 316.261 227.848C317.582 229.15 318.471 230.827 318.806 232.652C319.141 234.476 318.907 236.359 318.135 238.046C317.363 239.732 316.091 241.14 314.491 242.079C312.891 243.018 311.041 243.441 309.192 243.292C307.343 243.143 305.585 242.429 304.156 241.247C302.727 240.064 301.696 238.471 301.204 236.682C300.712 234.894 300.782 232.998 301.405 231.25Z" fill="#A0616A"/>
<path d="M231.322 114.157L241.526 104.2C241.526 104.2 250.449 101.445 258.687 115.684C266.925 129.922 285.007 168.62 285.007 168.62L291.789 175.085L292.679 177.297L298.589 182.798L297.447 185.479L304.344 187.587L284.077 205.773L273.714 194.773L273.672 188.227L269.171 186.31L264.732 182.63L263.135 176.586L231.322 114.157Z" fill="#2F2E41"/>
<path d="M190.82 143.155V201.556L258.766 189.355L241.553 136.814L190.82 143.155Z" fill="#A0616A"/>
<path d="M258.313 184.373L184.931 193.432L176.778 256.844L169.53 361.021L112.456 451.61L139.634 457.952L213.016 369.174L228.417 286.81L232.947 490.564L256.501 491.469L280.056 286.738C280.056 286.738 279.15 190.714 258.313 184.373Z" fill="#2F2E41"/>
<path d="M226.152 70.6835L197.162 62.5305L183.573 81.5542L196.709 194.337C196.709 194.337 245.63 158.102 251.065 191.62L253.33 147.684C253.33 147.684 255.784 118.696 250.481 116.431C245.177 114.166 225.246 86.0837 225.246 86.0837L226.152 70.6835Z" fill="#2155CD"/>
<path d="M177.231 68.8718L166.77 79.3324L152.77 182.108L187.981 217.317C187.981 217.317 226.152 149.496 198.974 93.3309L193.905 67.0898L177.231 68.8718Z" fill="#2F2E41"/>
<path d="M225.246 82.407L264.202 118.696L276.885 220.156L246.083 212.909L248.801 137.72L221.622 88.8017L225.246 82.407Z" fill="#2F2E41"/>
<path d="M304.75 540.922C304.751 541.064 304.723 541.204 304.669 541.335C304.615 541.466 304.536 541.585 304.435 541.685C304.335 541.785 304.216 541.865 304.085 541.919C303.954 541.973 303.814 542 303.672 542H74.2051C73.9192 542 73.645 541.886 73.4428 541.684C73.2406 541.482 73.127 541.208 73.127 540.922C73.127 540.636 73.2406 540.362 73.4428 540.16C73.645 539.958 73.9192 539.844 74.2051 539.844H303.672C303.814 539.844 303.954 539.871 304.085 539.925C304.216 539.979 304.335 540.059 304.435 540.159C304.536 540.259 304.615 540.378 304.669 540.509C304.723 540.64 304.751 540.78 304.75 540.922Z" fill="#CCCCCC"/>
<path d="M221.276 304.403H111.443C108.709 304.4 106.088 303.313 104.155 301.38C102.222 299.447 101.134 296.826 101.131 294.092V251.737C101.142 241.923 105.046 232.514 111.986 225.574C118.926 218.635 128.336 214.731 138.15 214.72H181.104C194.489 214.735 207.32 220.058 216.785 229.522C226.249 238.986 231.572 251.817 231.588 265.2V294.092C231.585 296.826 230.497 299.447 228.564 301.38C226.631 303.313 224.01 304.4 221.276 304.403Z" fill="#2155CD"/>
<path d="M151.097 216.45L160.928 165.419L163.749 150.775C164.078 149.066 161.459 148.334 161.128 150.053L151.297 201.084L148.476 215.728C148.147 217.436 150.766 218.168 151.097 216.45L151.097 216.45Z" fill="#2155CD"/>
<path d="M287.376 75.8743L274.167 79.0358L272.355 79.4707L226.886 90.3685C225.315 90.3691 223.808 90.9935 222.697 92.1044C221.586 93.2154 220.962 94.7219 220.961 96.293V156.046C220.963 157.615 221.589 159.12 222.7 160.229C223.811 161.338 225.316 161.961 226.886 161.961L256.22 154.931L258.032 154.496L287.376 147.467C288.945 147.465 290.45 146.842 291.56 145.733C292.671 144.624 293.297 143.12 293.301 141.551V81.7988C293.299 80.2282 292.674 78.7225 291.563 77.6119C290.452 76.5013 288.947 75.8764 287.376 75.8743Z" fill="#E6E6E6"/>
<path d="M291.534 119.312V83.0669C291.534 82.3542 291.394 81.6485 291.122 80.99C290.849 80.3316 290.449 79.7333 289.945 79.2293C289.441 78.7254 288.843 78.3257 288.185 78.0531C287.526 77.7805 286.82 77.6403 286.108 77.6406L274.167 81.2461L272.355 81.7987L238.147 92.1349C236.122 92.1349 234.117 92.5337 232.246 93.3085C230.375 94.0833 228.676 95.219 227.244 96.6507C225.812 98.0825 224.676 99.7822 223.901 101.653C223.126 103.523 222.728 105.528 222.728 107.553V154.777C222.727 155.49 222.867 156.196 223.14 156.854C223.413 157.512 223.812 158.111 224.316 158.615C224.82 159.119 225.419 159.518 226.077 159.791C226.736 160.063 227.441 160.204 228.154 160.203L256.22 153.074L258.032 152.612L282.774 146.325C290.882 146.325 292.676 142.475 292.676 136.551C292.676 131.831 291.534 125.78 291.534 119.312Z" fill="white"/>
<path d="M258.032 113.215V154.496L256.22 154.931V114.121H222.728C222.487 114.121 222.257 114.025 222.087 113.856C221.917 113.686 221.822 113.455 221.822 113.215C221.822 112.975 221.917 112.744 222.087 112.574C222.257 112.405 222.487 112.309 222.728 112.309H257.126C257.245 112.309 257.363 112.332 257.474 112.377C257.584 112.423 257.684 112.489 257.768 112.574C257.852 112.658 257.919 112.758 257.964 112.868C258.01 112.978 258.033 113.096 258.032 113.215Z" fill="#E6E6E6"/>
<path d="M293.301 100.324V101.737C293.142 101.867 292.944 101.937 292.739 101.937H273.261C273.142 101.937 273.024 101.914 272.914 101.869C272.804 101.823 272.704 101.757 272.62 101.672C272.535 101.588 272.469 101.488 272.423 101.378C272.378 101.268 272.355 101.15 272.355 101.031V79.4707L274.167 79.0359V100.125H292.739C292.944 100.125 293.142 100.195 293.301 100.324Z" fill="#E6E6E6"/>
<path d="M256.501 118.243C259.503 118.243 261.937 115.809 261.937 112.807C261.937 109.806 259.503 107.372 256.501 107.372C253.499 107.372 251.066 109.806 251.066 112.807C251.066 115.809 253.499 118.243 256.501 118.243Z" fill="#2155CD"/>
<path d="M216.183 62.6247C231.602 62.6247 244.101 50.1261 244.101 34.7083C244.101 19.2906 231.602 6.79199 216.183 6.79199C200.764 6.79199 188.265 19.2906 188.265 34.7083C188.265 50.1261 200.764 62.6247 216.183 62.6247Z" fill="#A0616A"/>
<path d="M249.643 35.6346L247.605 41.224L244.425 40.5536C244.689 38.5639 244.56 36.5418 244.044 34.6019C243.55 36.4289 242.552 38.08 241.164 39.3669L231.252 35.7524C216.069 35.6437 212.952 59.2784 210.298 83.8189L182.032 61.6699C182.085 60.1798 181.917 58.6902 181.534 57.2492C181.252 58.3064 180.793 59.308 180.175 60.2114L176.778 57.5481L179.405 25.5521C179.744 21.4291 180.998 17.4336 183.077 13.8566C185.155 10.2796 188.005 7.21123 191.419 4.875C194.834 2.53878 198.726 0.993525 202.813 0.351813C206.9 -0.289899 211.079 -0.0119109 215.045 1.16553L232.593 9.24607L238.382 8.63006C248.456 12.2989 253.312 25.5521 249.643 35.6346Z" fill="#2F2E41"/>
<path d="M182.463 214.267H139.509C134.325 214.265 129.198 215.355 124.462 217.466C119.727 219.577 115.488 222.661 112.024 226.517C118.81 220.376 127.638 216.978 136.792 216.985H179.745C193.13 217 205.962 222.323 215.426 231.787C224.89 241.25 230.214 254.082 230.229 267.465V296.357C230.231 298.427 229.606 300.449 228.436 302.157C229.825 301.213 230.962 299.943 231.748 298.458C232.535 296.974 232.946 295.319 232.947 293.64V264.747C232.931 251.364 227.608 238.533 218.144 229.069C208.679 219.606 195.848 214.282 182.463 214.267Z" fill="#3F3D56"/>
<path d="M163.981 80.8291C166.765 78.4209 171.233 79.4662 173.756 81.7522C176.915 84.6151 178.225 88.885 179.272 92.8813C181.708 102.589 183.071 112.534 183.337 122.538C183.709 132.579 183.315 142.63 182.761 152.656C182.186 163.033 181.53 173.405 180.908 183.779L178.778 219.324C178.673 221.071 181.391 221.065 181.495 219.324C182.81 197.389 184.197 175.456 185.43 153.516C186.6 132.714 187.214 111.326 181.595 91.0518C180.33 86.4852 178.447 81.6515 174.416 78.8303C170.757 76.2696 165.55 75.8884 162.059 78.9073C160.734 80.0535 162.664 81.9686 163.981 80.829L163.981 80.8291Z" fill="#2155CD"/>
<path d="M216.638 128.931L177.952 156.805L185.265 173.664L224.326 139.175C226.318 139.64 228.406 139.481 230.304 138.719C232.203 137.957 233.821 136.629 234.939 134.916C236.057 133.202 236.62 131.186 236.553 129.142C236.486 127.097 235.791 125.123 234.563 123.486C233.335 121.85 231.634 120.631 229.689 119.996C227.745 119.36 225.651 119.338 223.694 119.932C221.736 120.527 220.009 121.709 218.747 123.319C217.485 124.929 216.748 126.888 216.638 128.931V128.931Z" fill="#A0616A"/>
<path d="M165.829 80.0449C165.829 80.0449 175.988 81.738 177.074 99.8487C178.16 117.959 177.924 152.154 177.924 152.154L187.553 144.671L197.222 141.925L204.081 159.015L198.682 168.046L192.468 171.045L190.219 169.68L186.712 174.516C181.608 177.168 175.678 177.751 170.155 176.144C164.632 174.536 159.941 170.863 157.057 165.886L153.567 161.771L151.008 155.949L152.421 149.2L151.231 100.54C151.12 96.0049 152.483 91.5558 155.115 87.8605C157.747 84.1652 161.506 81.4229 165.829 80.0449Z" fill="#2F2E41"/>
<path d="M300.567 248.578L281.609 241.253C280.621 240.87 279.826 240.111 279.397 239.142C278.968 238.173 278.941 237.074 279.322 236.085L293.319 199.864C293.702 198.876 294.461 198.081 295.43 197.652C296.399 197.223 297.498 197.196 298.487 197.577L317.444 204.902C318.432 205.285 319.228 206.044 319.656 207.013C320.085 207.981 320.112 209.081 319.731 210.069L305.734 246.291C305.351 247.278 304.592 248.074 303.623 248.502C302.655 248.931 301.555 248.958 300.567 248.578Z" fill="#3F3D56"/>
<path d="M316.023 219.665C315.981 219.649 315.935 219.65 315.894 219.669C315.853 219.687 315.82 219.72 315.804 219.762L313.855 224.808C313.839 224.849 313.84 224.896 313.858 224.937C313.876 224.977 313.91 225.009 313.952 225.025C313.993 225.041 314.04 225.04 314.081 225.022C314.121 225.004 314.154 224.971 314.17 224.93L316.12 219.884C316.136 219.842 316.135 219.796 316.116 219.755C316.098 219.714 316.065 219.682 316.023 219.665Z" fill="#3F3D56"/>
<path d="M319.377 209.932L305.38 246.153C305.049 247.009 304.404 247.708 303.577 248.106C302.75 248.505 301.802 248.574 300.926 248.3L300.925 248.3C300.899 248.291 300.872 248.283 300.845 248.273C300.798 248.258 300.751 248.241 300.704 248.222C300.704 248.222 300.535 248.143 300.227 247.996C299.916 247.849 299.464 247.634 298.901 247.363C298.732 247.282 298.554 247.196 298.366 247.105C297.992 246.924 297.581 246.726 297.141 246.511C296.966 246.426 296.785 246.337 296.599 246.246C295.653 245.783 294.594 245.261 293.481 244.702C293.292 244.608 293.103 244.513 292.912 244.417C292.862 244.391 292.811 244.366 292.76 244.34C291.967 243.94 291.153 243.525 290.338 243.104L290.187 243.026C288.784 242.298 287.38 241.554 286.077 240.833C285.074 240.279 284.13 239.738 283.291 239.232C283.018 239.067 282.757 238.905 282.507 238.748C282.458 238.718 282.409 238.687 282.361 238.656C280.603 237.538 279.514 236.644 279.677 236.222L293.674 200.001C293.845 199.558 294.102 199.153 294.43 198.809C294.757 198.466 295.149 198.19 295.584 197.998C296.018 197.806 296.486 197.701 296.96 197.69C297.435 197.678 297.907 197.76 298.35 197.932L300.364 198.71C300.518 198.771 300.643 198.888 300.715 199.037C300.787 199.187 300.8 199.358 300.751 199.516C300.745 199.538 300.739 199.56 300.735 199.583C300.707 199.752 300.738 199.925 300.824 200.073C300.91 200.221 301.045 200.335 301.205 200.394L313.538 205.159C313.696 205.223 313.873 205.23 314.036 205.178C314.199 205.126 314.339 205.019 314.431 204.875C314.443 204.856 314.454 204.835 314.465 204.815C314.535 204.665 314.66 204.547 314.813 204.484C314.967 204.422 315.138 204.42 315.293 204.478L317.307 205.256C317.75 205.427 318.155 205.684 318.499 206.012C318.842 206.339 319.118 206.731 319.31 207.165C319.503 207.6 319.607 208.067 319.619 208.542C319.63 209.017 319.548 209.489 319.377 209.932Z" fill="#2155CD"/>
<path d="M290.994 205.646C290.953 205.629 290.906 205.631 290.865 205.649C290.824 205.667 290.792 205.701 290.776 205.742L290.288 207.004C290.273 207.045 290.274 207.092 290.292 207.133C290.31 207.173 290.344 207.205 290.385 207.221C290.427 207.238 290.473 207.236 290.514 207.219C290.555 207.201 290.587 207.167 290.604 207.126L291.091 205.864C291.107 205.822 291.106 205.776 291.088 205.735C291.07 205.694 291.036 205.662 290.994 205.646Z" fill="#3F3D56"/>
<path d="M289.532 209.43C289.49 209.414 289.444 209.415 289.403 209.433C289.362 209.451 289.33 209.485 289.313 209.527L288.369 211.97C288.353 212.012 288.355 212.059 288.373 212.099C288.391 212.14 288.424 212.172 288.466 212.188C288.508 212.204 288.554 212.203 288.595 212.185C288.636 212.167 288.668 212.134 288.684 212.092L289.629 209.648C289.645 209.607 289.644 209.56 289.626 209.519C289.608 209.478 289.574 209.446 289.532 209.43Z" fill="#3F3D56"/>
<path d="M288.192 212.899C288.15 212.883 288.103 212.884 288.062 212.902C288.021 212.92 287.989 212.954 287.973 212.996L287.029 215.439C287.021 215.46 287.017 215.482 287.017 215.505C287.017 215.527 287.022 215.549 287.031 215.569C287.04 215.59 287.053 215.608 287.069 215.623C287.085 215.639 287.104 215.651 287.125 215.659C287.146 215.667 287.168 215.671 287.19 215.67C287.213 215.67 287.235 215.665 287.255 215.656C287.275 215.647 287.294 215.634 287.309 215.617C287.324 215.601 287.336 215.582 287.344 215.561L288.288 213.117C288.305 213.076 288.303 213.029 288.285 212.988C288.267 212.947 288.233 212.915 288.192 212.899Z" fill="#3F3D56"/>
<path d="M299.928 199.176L297.248 198.14C297.139 198.098 297.016 198.152 296.974 198.261C296.932 198.37 296.986 198.492 297.095 198.534L299.776 199.57C299.885 199.612 300.007 199.558 300.049 199.449C300.091 199.34 300.037 199.218 299.928 199.176Z" fill="#3F3D56"/>
<path d="M315.548 205.64C315.734 205.64 315.886 205.488 315.886 205.302C315.886 205.115 315.734 204.964 315.548 204.964C315.361 204.964 315.21 205.115 315.21 205.302C315.21 205.488 315.361 205.64 315.548 205.64Z" fill="#3F3D56"/>
<path d="M316.415 205.975C316.602 205.975 316.753 205.824 316.753 205.637C316.753 205.45 316.602 205.299 316.415 205.299C316.228 205.299 316.077 205.45 316.077 205.637C316.077 205.824 316.228 205.975 316.415 205.975Z" fill="#3F3D56"/>
<path d="M317.282 206.31C317.469 206.31 317.62 206.159 317.62 205.972C317.62 205.785 317.469 205.634 317.282 205.634C317.096 205.634 316.944 205.785 316.944 205.972C316.944 206.159 317.096 206.31 317.282 206.31Z" fill="#3F3D56"/>
<path fill-rule="evenodd" clip-rule="evenodd" d="M304.117 218.736C303.847 219.434 303.345 220.016 302.695 220.386C302.046 220.756 301.288 220.89 300.551 220.766L297.02 229.903C296.989 229.982 296.943 230.055 296.884 230.117C296.826 230.178 296.755 230.228 296.677 230.262C296.599 230.297 296.515 230.316 296.43 230.318C296.345 230.32 296.26 230.305 296.181 230.274C296.101 230.243 296.029 230.197 295.967 230.139C295.905 230.08 295.856 230.009 295.821 229.932C295.787 229.854 295.768 229.77 295.766 229.685C295.764 229.599 295.779 229.515 295.81 229.435L299.34 220.298C298.824 219.967 298.411 219.496 298.152 218.94C297.892 218.384 297.795 217.765 297.873 217.157C297.951 216.548 298.2 215.973 298.591 215.5C298.982 215.027 299.499 214.675 300.083 214.484C300.666 214.293 301.292 214.272 301.887 214.423C302.482 214.573 303.022 214.889 303.444 215.335C303.867 215.78 304.154 216.336 304.273 216.938C304.392 217.54 304.338 218.164 304.117 218.736Z" fill="white"/>
<path d="M267.084 97.7959C266.772 98.6011 266.193 99.2741 265.442 99.7011C264.692 100.128 263.817 100.283 262.966 100.139L258.889 110.689C258.854 110.78 258.801 110.865 258.733 110.936C258.665 111.007 258.584 111.065 258.494 111.105C258.404 111.145 258.307 111.166 258.209 111.169C258.11 111.171 258.012 111.154 257.92 111.119C257.828 111.083 257.744 111.03 257.673 110.962C257.602 110.894 257.545 110.813 257.505 110.722C257.465 110.632 257.444 110.535 257.441 110.437C257.439 110.338 257.456 110.24 257.492 110.149L261.569 99.5994C260.972 99.217 260.496 98.6732 260.196 98.0311C259.896 97.3891 259.785 96.6751 259.875 95.9722C259.964 95.2692 260.252 94.6062 260.703 94.06C261.155 93.5138 261.752 93.107 262.426 92.8867C263.099 92.6664 263.821 92.6418 264.508 92.8156C265.195 92.9894 265.819 93.3545 266.307 93.8686C266.795 94.3827 267.127 95.0246 267.264 95.7198C267.401 96.415 267.339 97.1349 267.084 97.7959H267.084Z" fill="#2155CD"/>
</g>
<defs>
<clipPath id="clip0_147_3">
<rect width="247" height="542" fill="white" transform="translate(73)"/>
</clipPath>
</defs>
</svg>
